<?xml version="1.0" encoding="utf-8" standalone="no"?>
<!DOCTYPE svg PUBLIC "-//W3C//DTD SVG 1.1//EN"
  "http://www.w3.org/Graphics/SVG/1.1/DTD/svg11.dtd">
<svg xmlns:xlink="http://www.w3.org/1999/xlink" width="789.12pt" height="285.12pt" viewBox="0 0 789.12 285.12" xmlns="http://www.w3.org/2000/svg" version="1.1">
 <metadata>
  <rdf:RDF xmlns:dc="http://purl.org/dc/elements/1.1/" xmlns:cc="http://creativecommons.org/ns#" xmlns:rdf="http://www.w3.org/1999/02/22-rdf-syntax-ns#">
   <cc:Work>
    <dc:type rdf:resource="http://purl.org/dc/dcmitype/StillImage"/>
    <dc:date>2026-09-29T19:55:50.394768</dc:date>
    <dc:format>image/svg+xml</dc:format>
    <dc:creator>
     <cc:Agent>
      <dc:title>Matplotlib v3.11.2, https://matplotlib.org/</dc:title>
     </cc:Agent>
    </dc:creator>
   </cc:Work>
  </rdf:RDF>
 </metadata>
 <defs>
  <style type="text/css">*{stroke-linejoin: round; stroke-linecap: butt}</style>
 </defs>
 <g id="figure_1">
  <g id="patch_1">
   <path d="M 0 285.12 
L 789.12 285.12 
L 789.12 0 
L 0 0 
z
" style="fill: #ffffff"/>
  </g>
  <g id="axes_1">
   <g id="patch_2">
    <path d="M 12.161455 190.5408 
L 122.949818 190.5408 
Q 128.667927 190.5408 128.667927 184.896 
L 128.667927 107.28 
Q 128.667927 101.6352 122.949818 101.6352 
L 12.161455 101.6352 
Q 6.443345 101.6352 6.443345 107.28 
L 6.443345 184.896 
Q 6.443345 190.5408 12.161455 190.5408 
z
" clip-path="url(#pe4ec79ca3b)" style="fill: #dfc98f; opacity: 0.8; stroke: #333f4a; stroke-width: 1.5; stroke-linejoin: miter"/>
   </g>
   <g id="patch_3">
    <path d="M 162.261818 190.5408 
L 305.214545 190.5408 
Q 310.932655 190.5408 310.932655 184.896 
L 310.932655 107.28 
Q 310.932655 101.6352 305.214545 101.6352 
L 162.261818 101.6352 
Q 156.543709 101.6352 156.543709 107.28 
L 156.543709 184.896 
Q 156.543709 190.5408 162.261818 190.5408 
z
" clip-path="url(#pe4ec79ca3b)" style="fill: #dfc98f; opacity: 0.8; stroke: #333f4a; stroke-width: 1.5; stroke-linejoin: miter"/>
   </g>
   <g id="patch_4">
    <path d="M 358.821818 102.3408 
L 530.365091 102.3408 
Q 536.0832 102.3408 536.0832 96.696 
L 536.0832 40.248 
Q 536.0832 34.6032 530.365091 34.6032 
L 358.821818 34.6032 
Q 353.103709 34.6032 353.103709 40.248 
L 353.103709 96.696 
Q 353.103709 102.3408 358.821818 102.3408 
z
" clip-path="url(#pe4ec79ca3b)" style="fill: #dfc98f; opacity: 0.8; stroke: #333f4a; stroke-width: 1.5; stroke-linejoin: miter"/>
   </g>
   <g id="patch_5">
    <path d="M 358.821818 257.5728 
L 530.365091 257.5728 
Q 536.0832 257.5728 536.0832 251.928 
L 536.0832 195.48 
Q 536.0832 189.8352 530.365091 189.8352 
L 358.821818 189.8352 
Q 353.103709 189.8352 353.103709 195.48 
L 353.103709 251.928 
Q 353.103709 257.5728 358.821818 257.5728 
z
" clip-path="url(#pe4ec79ca3b)" style="fill: #dfc98f; opacity: 0.8; stroke: #333f4a; stroke-width: 1.5; stroke-linejoin: miter"/>
   </g>
   <g id="patch_6">
    <path d="M 580.398545 190.5408 
L 769.810909 190.5408 
Q 775.529018 190.5408 775.529018 184.896 
L 775.529018 107.28 
Q 775.529018 101.6352 769.810909 101.6352 
L 580.398545 101.6352 
Q 574.680436 101.6352 574.680436 107.28 
L 574.680436 184.896 
Q 574.680436 190.5408 580.398545 190.5408 
z
" clip-path="url(#pe4ec79ca3b)" style="fill: #dfc98f; opacity: 0.8; stroke: #333f4a; stroke-width: 1.5; stroke-linejoin: miter"/>
   </g>
   <g id="text_1">
    <text style="font-size: 11px; font-family: 'DejaVu Sans'; fill: #1c242b" transform="translate(45.534152 142.344348)">Monthly</text>
    <text style="font-size: 11px; font-family: 'DejaVu Sans'; fill: #1c242b" transform="translate(39.443761 155.547355)">purchases</text>
   </g>
   <g id="text_2">
    <text style="font-size: 11px; font-family: 'DejaVu Sans'; fill: #1c242b" transform="translate(191.01951 142.344348)">Raw-oil storage</text>
    <text style="font-size: 11px; font-family: 'DejaVu Sans'; fill: #1c242b" transform="translate(184.998729 155.547355)">5 separate stocks</text>
   </g>
   <g id="text_3">
    <text style="font-size: 11px; font-family: 'DejaVu Sans'; fill: #1c242b" transform="translate(394.340642 64.728348)">Vegetable refining</text>
    <text style="font-size: 11px; font-family: 'DejaVu Sans'; fill: #1c242b" transform="translate(410.488298 77.931355)">200 t/month</text>
   </g>
   <g id="text_4">
    <text style="font-size: 11px; font-family: 'DejaVu Sans'; fill: #1c242b" transform="translate(383.454939 219.960348)">Nonvegetable refining</text>
    <text style="font-size: 11px; font-family: 'DejaVu Sans'; fill: #1c242b" transform="translate(410.488298 233.163355)">250 t/month</text>
   </g>
   <g id="text_5">
    <text style="font-size: 11px; font-family: 'DejaVu Sans'; fill: #1c242b" transform="translate(623.079884 142.344348)">Blending and sales</text>
    <text style="font-size: 11px; font-family: 'DejaVu Sans'; fill: #1c242b" transform="translate(626.78379 155.547355)">3 ≤ hardness ≤ 6</text>
   </g>
   <g id="patch_7">
    <path d="M 132.097693 146.088 
Q 142.607114 146.088 151.104074 146.088 
" style="fill: none; stroke: #333f4a; stroke-width: 1.8; stroke-linecap: round"/>
    <path d="M 146.704074 143.888 
L 151.104074 146.088 
L 146.704074 148.288 
" style="fill: none; stroke: #333f4a; stroke-width: 1.8; stroke-linecap: round"/>
   </g>
   <g id="patch_8">
    <path d="M 313.506702 126.804586 
Q 332.018536 100.223492 349.38026 75.293837 
" style="fill: none; stroke: #333f4a; stroke-width: 1.8; stroke-linecap: round"/>
    <path d="M 345.060353 77.647219 
L 349.38026 75.293837 
L 348.671021 80.161791 
" style="fill: none; stroke: #333f4a; stroke-width: 1.8; stroke-linecap: round"/>
   </g>
   <g id="patch_9">
    <path d="M 313.458714 165.400915 
Q 332.017147 193.714422 349.472358 220.344807 
" style="fill: none; stroke: #333f4a; stroke-width: 1.8; stroke-linecap: round"/>
    <path d="M 348.900266 215.458836 
L 349.472358 220.344807 
L 345.220326 217.870897 
" style="fill: none; stroke: #333f4a; stroke-width: 1.8; stroke-linecap: round"/>
   </g>
   <g id="patch_10">
    <path d="M 538.657248 73.643414 
Q 557.169081 100.224508 574.530805 125.154163 
" style="fill: none; stroke: #333f4a; stroke-width: 1.8; stroke-linecap: round"/>
    <path d="M 573.821567 120.286209 
L 574.530805 125.154163 
L 570.210899 122.800781 
" style="fill: none; stroke: #333f4a; stroke-width: 1.8; stroke-linecap: round"/>
   </g>
   <g id="patch_11">
    <path d="M 538.609259 222.031085 
Q 557.167693 193.717578 574.622903 167.087193 
" style="fill: none; stroke: #333f4a; stroke-width: 1.8; stroke-linecap: round"/>
    <path d="M 570.370871 169.561103 
L 574.622903 167.087193 
L 574.050812 171.973164 
" style="fill: none; stroke: #333f4a; stroke-width: 1.8; stroke-linecap: round"/>
   </g>
   <g id="text_6">
    <text style="font-size: 10px; font-family: 'DejaVu Sans'; fill: #1c242b" transform="translate(165.731932 223.82868)">500 t/oil initially and finally</text>
    <text style="font-size: 10px; font-family: 'DejaVu Sans'; fill: #1c242b" transform="translate(167.018651 235.831414)">0–1,000 t/oil at month-end</text>
   </g>
   <g id="text_7">
    <text style="font-size: 10px; font-family: 'DejaVu Sans'; text-anchor: middle; fill: #1c242b" x="673.317818" y="220.176" transform="rotate(-0 673.317818 220.176)">No refined-oil or product storage</text>
   </g>
  </g>
 </g>
 <defs>
  <clipPath id="pe4ec79ca3b">
   <rect x="1.44" y="1.44" width="786.24" height="282.24"/>
  </clipPath>
 </defs>
</svg>
