<svg xmlns="http://www.w3.org/2000/svg" viewBox="0 0 360 460" role="img" aria-label="Evidence is synthesized to identify research gaps and create review novelty">
  <defs>
    <radialGradient id="glow"><stop stop-color="#0F6E6B" stop-opacity=".25"/><stop offset="1" stop-color="#0F6E6B" stop-opacity="0"/></radialGradient>
    <marker id="arrow" markerWidth="8" markerHeight="8" refX="6" refY="4" orient="auto"><path d="M1 1L6 4L1 7" fill="none" stroke="#80B1AD" stroke-width="1.3"/></marker>
  </defs>
  <circle cx="190" cy="218" r="215" fill="url(#glow)"/>
  <circle cx="190" cy="218" r="157" fill="none" stroke="#80B1AD" stroke-opacity=".10"/>
  <circle cx="190" cy="218" r="198" fill="none" stroke="#80B1AD" stroke-opacity=".06"/>
  <g font-family="Source Sans 3,Arial,sans-serif" text-anchor="middle">
    <text x="180" y="38" font-size="13" letter-spacing="2.4" fill="#A1B9BD">FROM LITERATURE</text>
    <rect x="65" y="72" width="230" height="70" rx="12" fill="#21373B" stroke="#5C9994"/>
    <text x="180" y="116" font-size="27" font-weight="600" fill="#DCE8E8">Evidence</text>
    <path d="M180 144V180" fill="none" stroke="#80B1AD" stroke-width="1.8" marker-end="url(#arrow)"/>
    <rect x="49" y="190" width="262" height="76" rx="12" fill="#0A4B49" stroke="#609B96"/>
    <text x="180" y="237" font-size="28" font-weight="600" fill="#F0F6F6">Synthesis</text>
    <path d="M180 268V292H92V321" fill="none" stroke="#80B1AD" stroke-width="1.8" marker-end="url(#arrow)"/>
    <path d="M180 292H268V321" fill="none" stroke="#80B1AD" stroke-width="1.8" marker-end="url(#arrow)"/>
    <rect x="15" y="330" width="154" height="86" rx="12" fill="#24363B" stroke="#6F989D"/>
    <text x="92" y="366" font-size="23" fill="#DCE8E8">Research<tspan x="92" dy="28">gaps</tspan></text>
    <rect x="191" y="330" width="154" height="86" rx="12" fill="#3D3528" stroke="#D79D45"/>
    <text x="268" y="366" font-size="23" fill="#F0B859">Review<tspan x="268" dy="28">novelty</tspan></text>
    <text x="180" y="449" font-size="12" letter-spacing="1.35" fill="#A1B9BD">TO NEW UNDERSTANDING</text>
  </g>
</svg>
